<svg width="200" height="200" viewBox="0 0 200 200" fill="none" xmlns="http://www.w3.org/2000/svg">
<path fill-rule="evenodd" clip-rule="evenodd" d="M200 100C200 123.985 191.556 145.998 177.478 163.228L197 182.75C197 182.75 200 185.5 200 190C200 194.5 196 200 190 200H100C44.7715 200 0 155.228 0 100C0 44.7715 44.7715 0 100 0C155.228 0 200 44.7715 200 100ZM100 160C133.137 160 160 133.137 160 100C160 66.8629 133.137 40 100 40C66.8629 40 40 66.8629 40 100C40 133.137 66.8629 160 100 160Z" fill="#B92B27"/>
</svg>
