<?xml version="1.0" standalone="no"?>
<!DOCTYPE svg PUBLIC "-//W3C//DTD SVG 20010904//EN"
 "http://www.w3.org/TR/2001/REC-SVG-20010904/DTD/svg10.dtd">
<svg version="1.0" xmlns="http://www.w3.org/2000/svg"
 width="512.000000pt" height="408.000000pt" viewBox="0 0 512.000000 408.000000"
 preserveAspectRatio="xMidYMid meet">

<g transform="translate(0.000000,408.000000) scale(0.100000,-0.100000)"
fill="#000000" stroke="none">
<path d="M990 4073 c-152 -25 -293 -129 -363 -268 -49 -99 -57 -145 -57 -345
0 -777 -175 -1211 -516 -1283 l-54 -11 0 -126 0 -126 54 -11 c341 -72 516
-506 516 -1283 0 -200 8 -246 57 -345 55 -110 160 -203 275 -246 l63 -24 1560
-3 c1133 -2 1576 0 1620 8 184 35 341 184 390 371 10 37 15 109 15 229 0 590
98 983 289 1169 59 57 152 108 225 123 l56 11 0 127 0 127 -56 11 c-339 68
-513 507 -514 1292 0 120 -5 192 -15 229 -49 187 -208 337 -389 370 -42 8
-530 11 -1595 10 -845 -1 -1547 -4 -1561 -6z m1918 -971 c263 -80 413 -261
415 -502 2 -218 -121 -397 -324 -474 l-59 -22 63 -13 c102 -21 203 -75 278
-150 108 -108 150 -212 150 -376 -1 -240 -107 -418 -311 -520 -173 -87 -244
-95 -852 -95 l-498 0 0 1091 0 1090 533 -3 c516 -4 534 -5 605 -26z"/>
<path d="M2130 2525 l0 -315 238 0 c250 0 328 9 418 49 72 32 120 77 151 139
23 48 28 70 28 137 0 146 -70 241 -211 285 -60 18 -93 20 -345 20 l-279 0 0
-315z"/>
<path d="M2130 1590 l0 -350 288 0 c373 0 454 16 555 109 68 62 91 125 92 242
0 87 -3 101 -30 154 -52 102 -155 161 -320 185 -38 5 -186 10 -327 10 l-258 0
0 -350z"/>
</g>
</svg>
