<?xml version="1.0" standalone="no"?>
<!DOCTYPE svg PUBLIC "-//W3C//DTD SVG 20010904//EN"
 "http://www.w3.org/TR/2001/REC-SVG-20010904/DTD/svg10.dtd">
<svg version="1.0" xmlns="http://www.w3.org/2000/svg"
 width="240.000000pt" height="240.000000pt" viewBox="0 0 240.000000 240.000000"
 preserveAspectRatio="xMidYMid meet">

<g transform="translate(0.000000,240.000000) scale(0.100000,-0.100000)"
fill="#000000" stroke="none">
<path d="M0 1200 l0 -1200 1200 0 1200 0 0 1200 0 1200 -1200 0 -1200 0 0
-1200z m638 598 c21 -21 13 -37 -48 -103 -138 -149 -180 -250 -187 -450 -8
-225 42 -370 176 -518 39 -42 71 -84 71 -91 0 -18 -27 -46 -43 -46 -42 0 -153
119 -215 230 -66 118 -99 289 -89 458 9 165 60 290 172 425 77 93 133 125 163
95z m1199 -7 c49 -31 149 -158 192 -246 68 -137 87 -301 57 -485 -25 -149 -53
-215 -147 -339 -57 -76 -118 -131 -146 -131 -16 0 -43 28 -43 46 0 7 32 49 71
91 134 148 184 293 176 518 -7 200 -49 301 -187 450 -61 66 -69 82 -48 103 17
17 38 15 75 -7z m-513 -266 c42 -88 51 -152 36 -251 -7 -46 -10 -87 -6 -91 11
-11 38 10 64 48 13 19 26 35 30 37 12 4 72 -102 88 -155 22 -68 14 -165 -19
-237 -23 -51 -153 -203 -164 -192 -2 2 12 27 31 55 39 58 53 111 40 150 -9 24
-15 26 -64 27 -110 1 -133 37 -124 201 4 72 2 123 -6 153 l-12 45 -22 -38
c-11 -22 -50 -85 -85 -140 -118 -186 -150 -318 -100 -412 l21 -40 -43 39
c-125 112 -166 243 -120 379 11 31 51 104 89 164 121 188 182 332 182 432 l1
46 79 -82 c47 -50 89 -104 104 -138z"/>
</g>
</svg>
