<?xml version="1.0" standalone="no"?>
<!DOCTYPE svg PUBLIC "-//W3C//DTD SVG 20010904//EN"
 "http://www.w3.org/TR/2001/REC-SVG-20010904/DTD/svg10.dtd">
<svg version="1.0" xmlns="http://www.w3.org/2000/svg"
 width="512.000000pt" height="512.000000pt" viewBox="0 0 512.000000 512.000000"
 preserveAspectRatio="xMidYMid meet">

<g transform="translate(0.000000,512.000000) scale(0.100000,-0.100000)"
fill="#000000" stroke="none">
<path d="M0 2560 l0 -2560 2560 0 2560 0 0 2560 0 2560 -2560 0 -2560 0 0
-2560z m1672 533 l3 -318 212 -3 213 -2 2 317 3 318 210 0 210 0 0 -845 0
-845 -210 0 -210 0 -3 318 -2 317 -213 -2 -212 -3 -3 -317 -2 -318 -210 0
-210 0 0 850 0 850 210 0 210 0 2 -317z m2343 -533 l0 -845 -635 0 -635 0 -3
835 c-1 459 0 841 3 848 3 10 136 12 637 10 l633 -3 0 -845z"/>
</g>
</svg>
