<svg id="svg" version="1.1" xmlns="http://www.w3.org/2000/svg" xmlns:xlink="http://www.w3.org/1999/xlink" width="400" height="400" viewBox="0, 0, 400,400"><g id="svgg"><path id="path0" d="M214.880 134.080 C 214.182 134.778,214.182 265.222,214.880 265.920 C 215.577 266.617,312.823 266.617,313.520 265.920 C 314.218 265.222,314.218 134.778,313.520 134.080 C 312.823 133.383,215.577 133.383,214.880 134.080 " stroke="none" fill="#04eb63" fill-rule="evenodd"></path><path id="path1" d="M0.000 200.000 L 0.000 400.000 200.000 400.000 L 400.000 400.000 400.000 200.000 L 400.000 0.000 200.000 0.000 L 0.000 0.000 0.000 200.000 M130.359 133.500 C 131.204 134.197,131.207 134.290,131.303 158.400 L 131.400 182.600 147.503 182.600 L 163.607 182.600 163.703 158.317 C 163.798 134.561,163.817 134.021,164.600 133.430 C 166.016 132.360,196.117 132.517,197.200 133.600 C 198.462 134.862,198.462 265.138,197.200 266.400 C 196.117 267.483,166.016 267.640,164.600 266.570 C 163.817 265.979,163.798 265.439,163.703 241.683 L 163.607 217.400 147.503 217.400 L 131.400 217.400 131.303 241.600 C 131.207 265.710,131.204 265.803,130.359 266.500 C 129.098 267.542,99.079 267.577,97.931 266.538 C 96.849 265.559,96.781 134.726,97.862 133.531 C 98.860 132.429,129.026 132.400,130.359 133.500 M313.739 133.549 C 314.759 134.396,314.759 265.604,313.739 266.451 C 312.679 267.330,216.272 267.470,214.936 266.595 L 213.998 265.980 214.099 199.902 L 214.200 133.824 215.200 133.315 C 216.734 132.535,312.792 132.763,313.739 133.549 " stroke="none" fill="#040b1b" fill-rule="evenodd"></path><path id="path2" d="M98.187 134.495 C 98.081 134.773,98.041 164.430,98.097 200.400 L 98.200 265.800 114.200 265.800 L 130.200 265.800 130.303 241.146 L 130.406 216.492 131.303 216.251 C 132.810 215.847,163.346 215.978,164.000 216.391 C 164.519 216.719,164.627 220.078,164.800 241.285 L 165.000 265.800 180.849 265.905 L 196.698 266.009 196.949 264.755 C 197.087 264.065,197.200 234.925,197.200 200.000 C 197.200 165.075,197.087 135.935,196.949 135.245 L 196.698 133.991 180.849 134.095 L 165.000 134.200 164.800 158.715 C 164.627 179.922,164.519 183.281,164.000 183.609 C 163.346 184.022,132.810 184.153,131.303 183.749 L 130.406 183.508 130.303 158.854 L 130.200 134.200 114.289 134.095 C 101.774 134.013,98.337 134.098,98.187 134.495 " stroke="none" fill="#fafafa" fill-rule="evenodd"></path><path id="path3" d="M97.862 133.531 C 96.781 134.726,96.849 265.559,97.931 266.538 C 99.079 267.577,129.098 267.542,130.359 266.500 C 131.204 265.803,131.207 265.710,131.303 241.600 L 131.400 217.400 147.700 217.400 C 156.665 217.400,164.000 217.263,164.000 217.096 C 164.000 216.928,156.575 216.838,147.500 216.896 L 131.000 217.000 130.800 241.467 C 130.690 254.924,130.450 266.084,130.267 266.267 C 129.770 266.764,99.946 266.912,98.662 266.423 L 97.600 266.020 97.600 200.000 L 97.600 133.980 98.662 133.577 C 99.946 133.088,129.770 133.236,130.267 133.733 C 130.450 133.916,130.690 145.076,130.800 158.533 L 131.000 183.000 147.500 183.104 C 156.575 183.162,164.000 183.072,164.000 182.904 C 164.000 182.737,156.665 182.600,147.700 182.600 L 131.400 182.600 131.303 158.400 C 131.207 134.290,131.204 134.197,130.359 133.500 C 129.026 132.400,98.860 132.429,97.862 133.531 M164.600 133.430 C 163.816 134.022,163.800 134.509,163.789 158.117 L 163.778 182.200 163.989 158.320 C 164.155 139.492,164.310 134.330,164.720 133.920 C 165.572 133.067,195.360 132.951,196.649 133.795 L 197.600 134.418 197.600 200.000 L 197.600 265.582 196.649 266.205 C 195.360 267.049,165.572 266.933,164.720 266.080 C 164.310 265.670,164.155 260.508,163.989 241.680 L 163.778 217.800 163.789 241.883 C 163.800 265.491,163.816 265.978,164.600 266.570 C 166.016 267.640,196.117 267.483,197.200 266.400 C 198.462 265.138,198.462 134.862,197.200 133.600 C 196.117 132.517,166.016 132.360,164.600 133.430 M215.200 133.315 L 214.200 133.824 214.099 199.902 L 213.998 265.980 214.936 266.595 C 216.272 267.470,312.679 267.330,313.739 266.451 C 314.349 265.944,314.400 260.811,314.400 200.000 C 314.400 139.189,314.349 134.056,313.739 133.549 C 312.792 132.763,216.734 132.535,215.200 133.315 M313.520 134.080 C 314.218 134.778,314.218 265.222,313.520 265.920 C 312.823 266.617,215.577 266.617,214.880 265.920 C 214.182 265.222,214.182 134.778,214.880 134.080 C 215.577 133.383,312.823 133.383,313.520 134.080 " stroke="none" fill="#315f4e" fill-rule="evenodd"></path><path id="path4" d="M98.500 133.605 L 97.600 133.974 97.600 199.997 L 97.600 266.020 98.662 266.423 C 99.946 266.912,129.770 266.764,130.267 266.267 C 130.450 266.084,130.690 254.924,130.800 241.467 L 131.000 217.000 147.500 216.896 L 164.000 216.791 164.000 240.919 C 164.000 261.120,164.092 265.173,164.567 265.824 C 165.361 266.910,195.035 267.263,196.649 266.205 L 197.600 265.582 197.600 200.000 L 197.600 134.418 196.649 133.795 C 195.035 132.737,165.361 133.090,164.567 134.176 C 164.092 134.827,164.000 138.880,164.000 159.081 L 164.000 183.209 147.500 183.104 L 131.000 183.000 130.800 158.533 C 130.690 145.076,130.450 133.916,130.267 133.733 C 129.804 133.270,99.616 133.148,98.500 133.605 M130.303 158.854 L 130.406 183.508 131.303 183.749 C 132.810 184.153,163.346 184.022,164.000 183.609 C 164.519 183.281,164.627 179.922,164.800 158.715 L 165.000 134.200 180.849 134.095 L 196.698 133.991 196.949 135.245 C 197.087 135.935,197.200 165.075,197.200 200.000 C 197.200 234.925,197.087 264.065,196.949 264.755 L 196.698 266.009 180.849 265.905 L 165.000 265.800 164.800 241.285 C 164.627 220.078,164.519 216.719,164.000 216.391 C 163.346 215.978,132.810 215.847,131.303 216.251 L 130.406 216.492 130.303 241.146 L 130.200 265.800 114.200 265.800 L 98.200 265.800 98.097 200.400 C 98.041 164.430,98.081 134.773,98.187 134.495 C 98.337 134.098,101.774 134.013,114.289 134.095 L 130.200 134.200 130.303 158.854 " stroke="none" fill="#bcc4c4" fill-rule="evenodd"></path></g></svg>