<svg xmlns="http://www.w3.org/2000/svg" width="300" height="300" viewBox="0 0 300 300" version="1.1"><path d="M 132.500 0.625 C 112.936 3.578, 97.600 8.167, 83.309 15.345 C 42.892 35.644, 14.488 71.247, 3.261 115.682 C 0.679 125.901, 0.527 127.773, 0.514 149.500 C 0.499 174.170, 1.283 180.299, 6.547 196.659 C 10.224 208.088, 19.855 227.165, 27.150 237.470 C 35.275 248.948, 51.052 264.725, 62.530 272.850 C 78.009 283.808, 99.396 293.291, 118.252 297.558 C 129.162 300.027, 162.793 300.677, 174.500 298.645 C 192.826 295.465, 220.634 285.352, 220.400 281.953 C 220.345 281.154, 209.294 265.650, 195.842 247.500 C 182.391 229.350, 162.898 201.900, 152.524 186.500 C 142.151 171.100, 128.902 151.525, 123.082 143 L 112.500 127.500 111.859 133.500 C 111.506 136.800, 111.168 156.848, 111.109 178.050 C 111.028 206.575, 110.688 216.912, 109.800 217.800 C 108.234 219.366, 96.766 219.366, 95.200 217.800 C 94.294 216.894, 94 202.101, 94 157.357 L 94 98.113 96.223 96.557 C 99.335 94.377, 108.183 94.494, 110.837 96.750 C 112.488 98.153, 202.183 233.054, 224.864 268.245 C 227.964 273.055, 230.725 276.993, 231 276.995 C 232.883 277.013, 250.224 262.467, 258.041 254.314 C 279.079 232.368, 292.951 205.210, 297.868 176.341 C 298.884 170.378, 299.952 166.400, 300.241 167.500 C 300.531 168.600, 300.767 160.500, 300.766 149.500 C 300.764 138.341, 300.426 130.826, 300 132.500 L 299.237 135.500 299.118 132.208 C 298.932 127.029, 296.101 114.374, 292.808 104 C 278.801 59.871, 242.962 23.213, 199 8.048 C 183.430 2.676, 172.446 0.856, 153.500 0.505 C 143.600 0.322, 134.150 0.376, 132.500 0.625 M 188.441 92.419 C 186.586 93.774, 186.487 95.567, 186.206 132.791 L 185.913 171.745 194.948 185.622 L 203.983 199.500 203.992 146.905 C 204 97.216, 203.899 94.219, 202.171 92.655 C 199.875 90.577, 191.166 90.427, 188.441 92.419 M 0.420 150.500 C 0.419 161.500, 0.565 166.136, 0.745 160.803 C 0.924 155.470, 0.925 146.470, 0.746 140.803 C 0.568 135.136, 0.421 139.500, 0.420 150.500" stroke="none" fill="#ffffff" fill-rule="evenodd"/><path d="" stroke="none" fill="#fffcfc" fill-rule="evenodd"/></svg>